<svg width="512" height="512" viewBox="0 0 512 512" fill="none" xmlns="http://www.w3.org/2000/svg">
<path d="M31.75 223.75H175L178 224L181 225.5L183 227.75L184 230.25L184.25 240.5L184 351.75H319L322 352L325 353.5L327 355.75L327.75 357.25L328 358.25V489.5L327 492L326 493.5L324.5 494.75L322.25 495.75L320.75 496H30.5L27.75 495L25.5 493L24.25 490.75L23.75 487.5V231.5L24.25 229.25L25.25 227.25L26 226.25H26.5V225.75L29 224.25L31.75 223.75ZM40.25 240L40 240.5V351.75L41.25 352H167L167.75 351.75V240H136.25L136 246.75L135.75 281.75L134.75 284.25L132.75 286.5L130.25 287.5L128.75 287.75H78.5L75.75 286.75L73.75 285L72.25 282L72 279.25L71.75 240H40.25ZM88.25 240L88 243.75V271.75H119.75V240H88.25ZM40.25 368L40 373.75V479.75L167.25 480L167.75 479.75V368H136.25L136 374.5L135.75 409.75L134.75 412.25L132.75 414.5L130.25 415.5L128.75 415.75H78.5L75.75 414.75L73.75 413L72.25 410L72 407.25L71.75 368H40.25ZM88.25 368L88 371.75V399.75H119.75V368H88.25ZM184.25 368L184 375.75V479.75L311 480L311.75 479.75V368H280.25L280 374L279.75 409.75L278.75 412.25L276.75 414.5L274.25 415.5L272.75 415.75H222.5L219.75 414.75L217.75 413L216.25 410L216 407.25L215.75 368H184.25ZM232.25 368L232 371.75V399.75H263.75V368H232.25Z" fill="#E1CB00"/>
<path d="M247.75 15.75H311.25L314.75 16.25L317.25 17.75L319 19.75L320 22V25.75L315.5 44L314.5 47.5L392 47.75L397.75 48.25L401.75 49.25L405.5 50.75L409.25 52.75L413.5 56L416.5 59L419 62.5L421 66L422.5 69.5L423.75 74.5L424 76.75L424.25 93.5V215.5L424 216H408L407.75 215.75L407.5 77.75L406.75 74.75L404.75 70.75L402.5 68.25L399.75 66.25L396.75 65L394.75 64.5L392.5 64.25L344.25 64L344 79.75H383.75L386.75 80.25L388.75 81.25L390.5 83L391.75 85.25L392 86.25L392.25 223.5L392 224H376L375.75 223.75V96L184.25 96.25V207.5L184 208H168L167.75 207.75V87.25L168.25 85.25L169.25 83.25L170.5 81.75L173 80.25L175.5 79.75H215.75V64L167.75 64.25L163.75 64.75L160.75 66L158 67.75L155.75 70L153.75 73.25L152.75 76L152.25 80.75V207.5L152 208H136L135.75 207.75V79L136.25 74.25L137.5 69.5L139 65.75L141.25 62L143.5 59L147.5 55L151.5 52.25L155.5 50.25L158 49.25L162.25 48.25L167.5 47.75H245.5L243.5 40.25L240 26V22L241 19.75L242.75 17.75L245.25 16.25L247.75 15.75ZM258.25 32L262.25 48L263.75 54.25V57.75L262.75 60.25L261 62.25L259 63.25L256.75 63.75L232.25 64L232 64.5V79.75L327 80L327.75 79.75V64L302.5 63.75L299.75 62.75L297.75 61L296.25 58V54.25L298.5 44.75L301.5 33V32H258.25Z" fill="#E1CB00"/>
<path d="M458.5 222.5H464.25L468 223.25L471.75 224.75L475.5 227L478.5 229.75L480.25 231.5L482.5 235L484.25 239L485 241.75L485.5 245.75L485.25 249.75L484.5 253.5L482.75 257.75L480.5 261.25L478.25 263.75L475.75 266L472.5 268L467.5 270L451.75 274.75L444.25 277L443.75 277.25L444.75 298.75V305.75L443.75 308.25L441.5 310.75L438.75 312L421.25 317.25L389.5 326.75L381 329.25L378.5 330L377.25 329.75L373.75 318L373 315.5V314.5L380.25 312.25L393.5 308.25L423.75 299.25L427.75 298V290.75L427.5 282.5L427.75 282L415.75 285.5L380.75 296L373 298.25L365.75 300.5L351.5 304.75L338 308.75L324.75 312.75L255.25 333.5L251.75 334.25L248.75 334L214.5 328L211.75 327L209.5 325L208 322V318L209 315.5L211 313.25H211.5V312.75L213.5 311L215.75 308.75L217.75 307L219.5 305.25H220V304.75L222 303L230.25 295.25L232.75 292.75L234.75 291L237 289L240.5 287.25L279 275.75L292.5 271.75L304 268.25L348.25 255L411 236.25L450.25 224.5L455.75 223L458.5 222.5ZM459.75 238.75L451 241.25L443.5 243.5L442.25 244L442 244.75L442.75 260.25L445 259.75L457.5 256L464 254L466.5 252.5L468 250.75L469 248.25V245L468.25 243L466.75 240.75L464.5 239.25L463 238.75H459.75ZM425.25 249L392.75 258.75L371 265.25L333.5 276.5L300 286.5L298.25 287L298.5 288.75L300.5 295.25L302.5 302L304.5 301.75L318.75 297.5L329.75 294.25L337 292L349.5 288.25L425.75 265.5L426.5 265.25L426.75 263.5L426 249H425.25ZM281.5 292L270 295.5L246.5 302.5L244 304.75L236.5 311.75L235 313V313.5L233.75 314L233.5 314.75L241.5 316.25L250 317.75L252 317.5L263.5 314L275.25 310.5L286.25 307.25L287 306.75L286.25 303.75L282.75 292H281.5Z" fill="#E1CB00"/>
<path d="M408.25 335.75H423.75L424.25 336.25L424 411.25L423.25 415.75L421.75 420.25L419.75 424.25L417.75 427.25L415 430.5L412 433.25L408.25 435.75L403.5 438L398.25 439.5L394.25 440H344L343.75 439.75V424.25L344.25 423.75L394 423.5L398 422.5L400.75 421L403.5 418.75L405.75 415.75L407 412.5L407.5 410.25L407.75 336.25L408.25 335.75Z" fill="#E1CB00"/>
<path d="M207.5 111.75H239.25L242 112L245 113.5L247 115.75L248 118.25V153.75L247 156.25L244.75 158.75L242.25 159.75L240.75 160H206.5L203.75 159L201.5 157L200 154L199.75 151.75V119.5L200.25 117.25L201.25 115.25L202.5 113.75L205 112.25L207.5 111.75ZM216.25 128L216 128.75V143.75H231.75V128H216.25Z" fill="#E1CB00"/>
<path d="M207.75 183.75H238.75L242.75 184.25L245.25 185.75L247 187.75L247.75 189.25L248 190.25V225.75L247 228.25L244.75 230.75L242.25 231.75L240.75 232H206.5L203.75 231L201.25 228.75L200 226L199.75 223.5V191.5L200.25 189.25L201.25 187.25L202.5 186L204.5 184.5L205.75 184L207.75 183.75ZM216.25 200L216 200.75V215.75H231.75V200H216.25Z" fill="#E1CB00"/>
<path d="M264.25 215.75H359.75L360.25 216.5V231.5L360 232H264L263.75 231.75V216.25L264.25 215.75Z" fill="#E1CB00"/>
<path d="M264.25 143.75H359.75L360.25 145.25L360 160H264L263.75 159.75V144.25L264.25 143.75Z" fill="#E1CB00"/>
<path d="M376.25 343.75H391.75L392.25 344.25L392 401.75L391 404.25L388.75 406.75L386.5 407.75L385 408H344L343.75 407.75V392.25L344.25 391.75H375.75V344.25L376.25 343.75Z" fill="#E1CB00"/>
<path d="M296.25 111.75H359.75L360.25 112.5L360 128H296L295.75 127.25V112.25L296.25 111.75Z" fill="#E1CB00"/>
<path d="M296.25 183.75H359.75L360 184V200H296L295.75 199.5V184.25L296.25 183.75Z" fill="#E1CB00"/>
<path d="M264.25 183.75H279.75L280.25 184.5L280 200H264L263.75 199.75V184.25L264.25 183.75Z" fill="#E1CB00"/>
<path d="M264.25 111.75H279.75L280.25 112.5L280 128H264L263.75 127.75V112.25L264.25 111.75Z" fill="#E1CB00"/>
<path d="M280.25 447.75H295.75L296.25 448.5L296 464H280L279.75 463.75V448.25L280.25 447.75Z" fill="#E1CB00"/>
<path d="M136.25 447.75H151.75L152.25 448.5L152 464H136L135.75 463.75V448.25L136.25 447.75Z" fill="#E1CB00"/>
<path d="M136.25 319.75H151.75L152.25 320.5L152 336H136L135.75 335.75V320.25L136.25 319.75Z" fill="#E1CB00"/>
</svg>
