<svg width="512" height="512" viewBox="0 0 512 512" fill="none" xmlns="http://www.w3.org/2000/svg">
<path d="M87.5 0H455.75L458.75 1.25L462.5 3.25L465.25 5.5L467.5 8.25L469.5 11.75L470.5 15L470.75 16.25L471 20V491.25L470.75 495.5L470 498.75L468 503L466.25 505.25L465.25 506.5L462.75 508.5L459.75 510.25L456.25 511.5L455 512H88.5L83.75 510.25L80.75 508.5L78.25 506.25L76 503.75L73.75 499.5L72.75 495.75L72.5 493.25V479H64.5L60.5 478.5L56.5 477.25L52.25 475L48.75 472L46.75 469.75L44.75 466.75L43.5 464L42.25 460L41.75 455L42.25 450.5L43.5 446.5L45.25 443L47 440.5L49.5 437.75L52.75 435.25L56.5 433.25L60.75 432L64.5 431.5H72.5V399.25H64L60.25 398.75L55.75 397.25L52.25 395.25L49.5 393L47.5 391L45 387.5L43.25 383.75L42.25 380.5L41.75 375L42.25 370.75L44 365.5L45.75 362.5L48.25 359.25L51 356.75L54.5 354.5L57.25 353.25L60.5 352.25L65 351.75H72.5V319.5H63.25L59.25 318.75L55.25 317.25L52.25 315.5L49.5 313.25L47.5 311.25L45 307.75L43.25 304L42.25 300.75L41.75 296.5L42 292.75L42.75 289.25L44 286L46 282.25L49 278.75L52.75 275.75L56.5 273.75L60.75 272.5L65.25 272H72.5V239.75L68.25 240L63 239.75L59.25 239L55.75 237.75L52.25 235.75L49 233L46.25 230L44 226L42.5 222L42 219.5L41.75 216L42.25 211.25L43.75 206.75L45.75 203L47.75 200.5L49.25 198.75L52.75 196L56.75 194L60.75 192.75L65 192.25L72.25 192L72.5 160L68.5 160.25L61.25 159.75L57.5 158.75L53.5 156.75L51.25 155.25L48.75 153L46.5 150.5L44.5 147.25L43 143.75L42.25 141.25L41.75 136L42.25 131.75L43.5 127.75L45.5 123.75L46.5 122.25L48.75 119.5L52 116.75L56 114.5L59.75 113.25L62.75 112.75L66.25 112.5H72.5L72.25 80.5H65L60 79.75L56.25 78.5L52.5 76.5L50 74.5L47.25 71.75L45.5 69.25L43.5 65.5L42.25 61.5L41.75 57.25L42 53.5L43 49.25L44.75 45.25L46.5 42.5L49 39.5H49.5V39L53.75 36L57.5 34.25L61 33.25L66.25 32.75H72.5V18.25L73.25 14L74.5 10.75L76.5 7.5L79.5 4.25L83 2L86 0.75L87.5 0ZM91.25 15.25L89.25 16.25L88.25 17.75L88 19.25V493.5L88.75 495L89.75 496L90.75 496.5L92.5 496.75H450.5L452.75 496.5L454.25 495.5L455 494.75L455.5 492.75V18.75L454.75 17L453.5 15.75L451.75 15.25H91.25ZM65.5 48.25L62 49L59.75 50.75L58.25 52.75L57.5 55V58.5L58.5 61L60.5 63.25L63 64.5L65.75 65H72.25L72.5 64.75V48.25H65.5ZM65 128L62.75 128.5L60.25 130L58.5 132L57.5 134.75V138.25L58.5 140.75L60.25 142.75L62.25 144L66 144.75H72.5V128H65ZM65 207.75L62 208.5L59.75 210.25L58.25 212.25L57.5 214.5V218L58.5 220.25L59.5 221.75L61.25 223.25L63 224L66 224.5H72.5V207.75H65ZM65 287.5L62 288.25L60 289.75L58.5 291.5L57.5 294V297.5L58.25 299.75L60 302L62.25 303.5L66.25 304.25H72L72.5 303.75V287.5H65ZM64.5 367.25L62 368L60 369.5L58.5 371.25L57.5 373.75V377.25L58.25 379.5L60 381.75L62.5 383.25L64.5 383.75L70.25 384L72.5 383.75V367.25H64.5ZM64.5 447L62 447.75L60.5 448.75L58.75 450.5L57.5 453.5V457L58.25 459.25L60 461.5L62.5 463L64.5 463.5L70 463.75H72L72.5 463.5V447H64.5Z" fill="#E1CB00"/>
<path d="M262.25 74.5H281L285 75.25L289 77.25L291 78.75L292.75 80.75L294.5 83.5L295.75 86.75L296.25 89.75L295.75 98L294.75 106.5L298.5 107.25L305 109L313 111.75L320.5 115L327.75 118.75L332.75 121.75L338.25 125.5L342.75 129L345.25 131L348 133.5L350 135.25L356.5 141.75L358.25 143.75L360.75 146.75L363.25 150L366.25 154.25L368.75 158L371.75 163.25L374.75 169L377 173.75L379.75 181L381.75 187.5L383.5 194.5L385 203.5L385.75 210.5V212H393.5L397.25 212.75L400.25 214.5L402.5 216.75L404 219.25L404.75 222L405 223.75V239.25L404.25 243.5L403 246L401.25 248.25L398.25 250.25L396 251L393.25 251.5H150L145.75 250.5L143 248.75L141.75 247.5L140 245.25L139 242.75L138.5 240V223.25L139.5 219.25L141 216.75L142.75 214.75L146.25 212.75L149.5 212H157.75L158 207.25L159 199.75L160.5 192L162.75 184L165 177.5L167.25 172.25L170.25 166L173.5 160L175.75 156.5L179.5 151L183 146.5L183.5 145.75H184L184.5 144.75L186 142.75H186.5L187 141.75L189.25 139.5L189.75 138.75H190.25L190.75 137.75L192.75 135.75L194.75 134L197.5 131.5L200.25 129.25L204.5 126L208 123.5L212 121L215.75 118.75L222.25 115.25L231 111.5L240 108.5L248.25 106.5H248.75L248 100.25L247.25 93.25V88.75L248.25 85L250 81.75L252 79.25L254.75 77L257.75 75.5L260.25 74.75L262.25 74.5ZM262.75 90V92.5L264 104.25L265 104.5H279L279.5 103.5L280.75 92.25V90H262.75ZM271.5 119.5L264.75 119.75L259.5 120.25L251.75 121.5L243.75 123.5L234.5 126.75L227 130.25L221.5 133.25L217.5 135.75L213 139L209.75 141.5L207.25 143.75L204.5 146L200 150.5V151L199 151.5L197.25 153.5L194 157.5L191 161.5L186.75 168L183 175L180.5 180.5L178.5 185.75L176.5 192L174.75 199.75L174 203.75L173.25 210V212L186.75 212.25L189.25 213L191.25 214.5L192.75 216.75L193.25 218.5V221L192.25 223.5L191 225.25L189 226.5L185 227.25L154 227.5V236H389.25L389.5 235.75V227.5L221.5 227.25L218 226.5L216 225L214.75 223.5L213.75 221V218.5L214.75 215.75L216.25 214L218.5 212.75L220.5 212.25L370.25 212V210L369 201.25L367.5 194L365 185.75L362.25 178.75L359.25 172.5L355.75 166.25L351.5 160L348.75 156.5L346 153.25L343.25 150.25L338 145L335.25 142.75L332 140L327.25 136.75L324.5 134.75L318.25 131.25L314.25 129.25L309.5 127L302 124.25L295.75 122.5L290.25 121.25L283.5 120.25L278.25 119.75L271.5 119.5Z" fill="#E1CB00"/>
<path d="M146.5 306H395.25L399 306.25L401.25 307.25L403.5 309.25L404.75 311.75L405 314.25L404.5 316.5L403 318.75L401 320.5L398.75 321.25L397.5 321.5H145.5L143 320.75L141.5 319.75L139.5 317.5L138.75 315.75L138.5 313.25L139.5 310L141.75 307.5L143.75 306.5L146.5 306Z" fill="#E1CB00"/>
<path d="M145.75 422H319.75L322 422.5L324.25 424L326 426L326.75 428V431.5L325.75 433.75L324 435.75L321.5 437L317.75 437.5H147L143.75 437L141.75 436L139.75 433.75L138.75 431.5L138.5 429.25L139.25 426.5L140.75 424.25L143 422.75L144.25 422.25L145.75 422Z" fill="#E1CB00"/>
<path d="M152.5 338.5H155.75L158.25 339.25L160.5 341L162.25 343.5L164.5 347.5L168.5 354.75L171.5 360L173.5 364L174.25 364.25L174.75 363L177.5 357.75L179.75 353.75L183 347.75L185 344.25L187.25 341L189.5 339.25L192 338.5H195.25L197.5 339.25L198.75 340.5L199.5 341.5L200 343.5V401.25L199 402.75L197.75 403.75L196 404.25H191.75L189.25 403L188.25 401.5L188 399.5V363L185 368.25L181.75 374L179 379L177.25 381.5L175.75 382.75L175 383H172.5L171.25 382.25L169.5 380.25L166.25 374.25L163.75 369.5L160.25 363L159.75 362.25V400.75L159 402.5L157.5 403.75L155.75 404.25H151.5L149.25 403.25L148 401.75L147.75 401V343.5L148.5 341.25L150.25 339.25L152.5 338.5Z" fill="#E1CB00"/>
<path d="M282.75 338.5H286.25L288.75 339.25L291.25 341.5L293.25 344.75L296.75 351.5L301.5 360.75L304 365.5L306 369.25L308 373.25L309.75 376.5L310 376.75L310.25 341.5L311.25 340L312.75 339L314.5 338.5H317.75L320.25 339.25L321.5 340.25L322.25 342V400.25L321.75 402L320.5 403.25L319.25 404L316.5 404.5L312.5 403.75L311 402.75L309.25 400.5L306.25 395L304 391L302 387L298.5 380.5L291 366.5L290.5 365.75L290.25 401.25L289.25 402.75L287.5 404L284.75 404.5L282 404.25L279.75 403.25L278.75 402L278.25 400.5V342L279 340.5L280 339.5L281.5 338.75L282.75 338.5Z" fill="#E1CB00"/>
<path d="M347 338.5H350L352.5 339.25L353.75 340.25L354.5 342L354.75 385.25L355.25 388.5L356.5 391L358.5 392.75L359.75 393.5L363.75 394.25L366.75 394L369.5 393L371 392L372.75 389.75L373.5 387L373.75 384.5L374 341.5L375 340L376.5 339L378.25 338.5H381.5L384 339.25L385.25 340.5L386 342V384.25L385.75 388.25L384.75 392.5L383.5 395.5L382 397.75L379.75 400.25L376.25 402.5L372.25 404L368.75 404.75L366 405H362L356.75 404.25L352 402.5L348.75 400.25L346.5 398L344.5 394.5L343.5 391.75L342.75 388.25L342.5 385.5V342L343.25 340.25L345 339L347 338.5Z" fill="#E1CB00"/>
<path d="M224.75 338.5H258.25L260 339.25L261 340.5L261.75 342.75V344.75L260.75 347.25L259.75 348.5L257.25 349H232.5L232.75 366.25V366.5L247 366.75L248.5 367.75L249.5 369L250 370.75L249.75 373.25L248.25 375.5L247.25 376L232.75 376.25V394H258.75L260.25 395L261.5 397L261.75 398V400.25L261 402.5L259.75 404L257.25 404.5H225.5L223.25 404L221.75 403L220.75 401.5L220.5 399V342.75L221 340.75L222.25 339.5L223.5 338.75L224.75 338.5Z" fill="#E1CB00"/>
<path d="M354 422H397.75L400 422.5L402 423.75L403.25 425L404.5 427L405 429L404.75 431.75L403.5 434.25L401.75 436L400.5 436.75L398.5 437.25L396 437.5H354.75L352 437L350 436L348 433.75L347 431.75V427.75L348.5 424.75L350.25 423.25L352.5 422.25L354 422Z" fill="#E1CB00"/>
</svg>
