<svg width="512" height="512" viewBox="0 0 512 512" fill="none" xmlns="http://www.w3.org/2000/svg">
<path d="M33.25 127.75H207.5L212 128.25L214.75 129.25L217.25 130.75L219.75 133L221.5 135L223.25 138.5L224 141.5V146.75L223 150L221.25 153.25L218.5 156.25L216 158L213 159.25L211.25 159.75L209.25 160H32.25V171.75L32 223.75H207.5L212 224.25L214.75 225.25L217.25 226.75L219.75 229L221.5 231L223.25 234.5L224 237.5V242.75L223 246L221.25 249.25L218.5 252.25L216 254L213 255.25L211.25 255.75L209.25 256H32.25V411.25L32 447.75H479.75V335.25L480.25 332L481.5 328.75L483 326.25L485.25 323.75L487.75 322L490.25 320.75L493 320H499L502.25 321L505 322.5L507.5 324.75L509.5 327L511.5 331L512 332.25V454.5L511.25 454.25L511 456.25L509.75 460L507.75 464L506.25 466.5L502.75 470.75L499.5 473.5L496 475.75L491.25 478L487 479.25L484 479.75L481.25 480H30.75L25.75 479.5L20.5 478L16.5 476L13.5 474.25L10 471.25L8.75 470L6.5 467.5L4 463.75L2 459.5L0.5 454.75L0 453V154.75L2 148.25L4 144.25L5.5 141.75L7.5 139.25L9.75 136.75L12 134.75L15.25 132.5L19.5 130.25L23.25 129L26.75 128.25L33.25 127.75Z" fill="#E1CB00"/>
<path d="M383 31.75L387 32L391 33.25L424.75 47.75L432 50.75L435.25 52.25L441.75 55L482 72.25L488 74.75L491.25 76.25L497.75 79L502.75 81.25L506.25 83.5L508.5 85.75L510 88L511.5 91L512 92.25V181L511.5 181.5L510.5 192.25L508.75 205.25L506 219L502.25 232.25L499 241.25L496 248.5L491.5 258L488.5 263.25L484.5 270L481.75 274L477.75 279.75L473.75 284.75L470.5 288.75L468.25 291.5L465.5 294.25L463.75 296.25L459.75 300.25L458.25 302L456.25 303.75L452.25 307.5L449 310.5L445.5 313.5L442 316.25L438.75 319L434.5 322.25L429.75 325.75L425.25 329L420.25 332.5L416.75 334.75L409.5 339.5L404.25 342.75L396.25 347.5L392 350L388.5 351.5L385.75 352H381.75L378.75 351.25L374.5 349.25L367.5 345L360 340.5L353.25 336L349.75 333.75L345.25 330.75L340.75 327.5L336 324L332 321L328 317.75L325.25 315.5L321.25 312.25L317.5 309L315.75 307.25L313.75 305.5L312 303.75L311.5 303.5V303L310.5 302.5L306.5 298.5V298H306L304.25 296L300.75 292.5L298.5 289.75L295.25 286L292.5 282.5L289 278L287.25 275.25L284.75 271.75L281.75 267L278 260.5L275.75 256.5L272.5 249.5L270.25 244.5L266.5 234.5L264.25 227.25L262 219L259.25 205.25L257.5 192.75L256.75 185.25L256.25 178.25L256 172.75L255.75 162.75V96L256.5 91.25L257.75 88.25L259.5 85.75L261 84L263.5 82.25L266 80.75L273.5 77.5L354 43L367.5 37.25L375 34L379.75 32.25L383 31.75ZM384 65.5L379 67.5L371.5 70.75L292.75 104.5L288.25 106.5L288 143.75V153.5L288.25 171.25L289 183.75L290.25 194.75L291.5 202.25L293.25 210.75L295.75 220L299 229.5L302.25 237L305 242.75L306.75 245.75L308.25 248.5L310 251.5L312.5 255.25L315.25 259.25L317.75 262.5L321.75 267.5L324.75 271L326.75 273L328.5 275L335.5 282L337.5 283.75L340.5 286.5L343.25 288.75L346.75 291.75L351 295L354.25 297.5L359 301L361.5 302.75L364.75 305L373 310.5L383.5 317L384.75 316.75L387.25 315.25L393.25 311.5L398 308.5L404.25 304.25L409.25 300.75L414 297.25L419.25 293.25L422.5 290.5L425.25 288.25L428.75 285.25L431.25 283L435.25 279.25L441 273.5L442.75 271.5L443 270.75H443.5L445.25 268.75L448 265.5L451 261.5L453.5 258.25L459.25 249.5L462.75 243L465 238.75L468.5 230.75L472 220.75L474.75 210.75L476.75 201L478 192L478.75 185.75L479.5 175L479.75 167.25V106.5L471.25 102.75L461.25 98.5L389.5 67.75L384.75 65.75L384 65.5Z" fill="#E1CB00"/>
<path d="M429.25 128H434.75L438.25 129L441 130.5L443.75 132.75L446 135.75L447.25 138.5L448 141.25V146.75L447 150L445.25 153.25L442.75 156.5L439.5 160.5L436.75 164L433.5 168L430.75 171.5L427.5 175.5L424.75 179L421.5 183L418.75 186.5L415.5 190.5L412.75 194L409.5 198L406.75 201.5L403.5 205.5L400.75 209L397.5 213L394.75 216.5L391.5 220.5L388.75 224L385.5 228L382.75 231.5L380.5 234.25L378.25 236.5L375.5 238.25L372.5 239.5L370 240H365.75L362.5 239.25L358.75 237.25L355.75 234.5L353.25 231.25L346.5 221L324 187.25L322 184L320.5 180.75L320 178.75L319.75 175.25L320.5 171.25L321.75 168.25L323.5 165.75L325.25 163.75L327.75 162L331 160.5L333 160H338.75L342.25 161L345.25 162.75L347.75 165L349.5 167L360.5 183.5L362.25 186L366.75 192.75L369 196L369.75 196.25L370.25 195L373 191.75L378 185.5L380.75 182L383 179.25L386.25 175.25L389 171.75L391.25 169L394.75 164.5L398 160.5L400.75 157L403 154.25L406 150.5L408.75 147L412 143L414.75 139.5L418 135.5L420.25 132.75L422.25 131L424.75 129.5L427 128.5L429.25 128Z" fill="#E1CB00"/>
<path d="M80 319.75H143.75L148 320.25L150.75 321.25L153.25 322.75L155.75 325L157.5 327L159.25 330.5L160 333.5V338.75L159 342L157.25 345.25L154.5 348.25L152 350L149 351.25L147.25 351.75L145.25 352H78.5L74.5 351.25L71.5 349.75L69 347.75L67.25 346L65.75 343.5L64.75 341.5L64 338.75V333.25L65 329.75L66.5 327L69.25 323.75L71.75 322L75 320.5L77.25 320L80 319.75Z" fill="#E1CB00"/>
</svg>
